<svg xmlns="http://www.w3.org/2000/svg" width="32" height="32" viewBox="0 0 32 32" fill="none">
    <path fill-rule="evenodd" clip-rule="evenodd" d="M5.70711 4.29289C5.31658 3.90237 4.68342 3.90237 4.29289 4.29289C3.90237 4.68342 3.90237 5.31658 4.29289 5.70711L14.1925 15.6067L4.29304 25.5061C3.90252 25.8966 3.90252 26.5298 4.29304 26.9203C4.68357 27.3109 5.31673 27.3109 5.70726 26.9203L15.6067 17.0209L25.5061 26.9203C25.8966 27.3108 26.5298 27.3108 26.9203 26.9203C27.3108 26.5298 27.3108 25.8966 26.9203 25.5061L17.0209 15.6067L26.9205 5.70713C27.311 5.31661 27.311 4.68344 26.9205 4.29292C26.5299 3.90239 25.8968 3.90239 25.5062 4.29292L15.6067 14.1925L5.70711 4.29289Z" fill="#0E0E0E"/>
</svg>