<!-- icon666.com - MILLIONS vector ICONS FREE --><svg id="Layer_1" enable-background="new 0 0 48 48" viewBox="0 0 48 48" xmlns="http://www.w3.org/2000/svg"><path d="m37.3 10.7c-7.3-7.3-19.3-7.3-26.6 0s-7.3 19.3 0 26.6c3.7 3.7 8.5 5.5 13.3 5.5s9.6-1.8 13.3-5.5c7.3-7.3 7.3-19.3 0-26.6zm-1.4 25.2c-6.5 6.5-17.2 6.5-23.7 0s-6.5-17.2 0-23.7c3.3-3.3 7.6-4.9 11.9-4.9s8.6 1.6 11.9 4.9c6.4 6.5 6.4 17.1-.1 23.7zm-11.3-14.5c.2.2.4.5.4.9v9.6c0 .4-.1.7-.4.9s-.5.3-.9.3c-.3 0-.6-.1-.9-.3-.2-.2-.4-.5-.4-.9v-9.6c0-.4.1-.7.4-.9s.5-.3.9-.3.7.1.9.3zm.3-5.4c.3.3.4.6.4 1s-.1.8-.4 1c-.3.3-.6.4-1.1.4s-.8-.1-1.1-.4-.4-.6-.4-1 .1-.8.4-1c.3-.3.7-.4 1.1-.4s.8.1 1.1.4z"></path></svg>