<svg width="24" height="24" viewBox="0 0 24 24" fill="none" xmlns="http://www.w3.org/2000/svg"><path fill-rule="evenodd" clip-rule="evenodd" d="M7.16727 2.79597C6.72575 2.35422 5.99108 2.41705 5.62521 2.92783L4.40608 4.62981C3.81147 5.45993 3.49696 6.45231 3.50002 7.45211C3.50251 8.26032 3.71252 9.07339 4.14987 9.80953C6.9207 14.4736 9.56148 17.062 14.1793 19.8376C15.8276 20.8282 17.8721 20.6786 19.3846 19.5942L21.0734 18.3834C21.5839 18.0174 21.6467 17.2823 21.2051 16.8406L18.3318 13.9659C18.0035 13.6375 17.4927 13.5763 17.0929 13.8175L14.7087 15.7425L8.26229 9.29604L10.189 6.91028C10.4301 6.51034 10.3689 5.99917 10.0407 5.67079L7.16727 2.79597Z" fill="#212124"></path></svg>