<svg width="24" height="24" viewBox="0 0 24 24" fill="none" xmlns="http://www.w3.org/2000/svg">
    <path d="M1.58098 10.6803C7.75614 7.99922 11.8729 6.2315 13.9312 5.3775C19.8152 2.93884 21.0363 2.5153 21.8338 2.50112C22.0092 2.49815 22.3997 2.54136 22.6545 2.74686C22.8663 2.92004 22.9259 3.15424 22.9557 3.31851C22.9822 3.48278 23.0186 3.85717 22.9889 4.14943C22.6712 7.48761 21.2912 15.5883 20.5896 19.3273C20.2951 20.9094 19.7093 21.4398 19.1434 21.4916C17.9123 21.6044 16.9791 20.6814 15.7877 19.9032C13.9246 18.685 12.8723 17.927 11.0621 16.7385C8.97063 15.365 10.3274 14.61 11.5188 13.3763C11.8298 13.0533 17.2504 8.14008 17.353 7.69443C17.3663 7.63869 17.3796 7.43088 17.2538 7.32136C17.1314 7.21152 16.9492 7.24912 16.8169 7.27881C16.6282 7.32103 13.6532 9.28304 7.88175 13.1645C7.03788 13.7431 6.27345 14.0251 5.58511 14.0103C4.83059 13.9941 3.37459 13.5841 2.29245 13.2338C0.968726 12.804 -0.0869939 12.5767 0.00566664 11.8467C0.0519969 11.4667 0.57826 11.0778 1.58098 10.6803Z"
          fill="#212124"></path>
</svg>